<?xml version="1.0" encoding="utf-8"?>
<?xml-stylesheet type="text/xsl" href="rss1.xsl"?>
<rss version="2.0" xmlns:atom="http://www.w3.org/2005/Atom" xmlns:content="http://purl.org/rss/1.0/modules/content/" xmlns:dc="http://purl.org/dc/elements/1.1/" xmlns:media="http://search.yahoo.com/mrss/">
<channel>
 <title>Getty</title>
 <link>http://www.gettyimg.com/</link>
 <atom:link href="http://www.gettyimg.com/" rel="self" type="application/rss+xml" />

 
                <item>
                <title><![CDATA[【Requests】[REQ AUD] - Couple Artists (qobuz)]]></title>
                <link><![CDATA[https://sharemania.us/threads/couple-artists-qobuz.221603/]]></link>
                <description><![CDATA[<article>
<blockquote class="messageText SelectQuoteContainer ugc baseHtml">
hey yall, been looking for these songs please, FLAC<br>
<br>
<b>Lina - Stranger On Earth (Album)</b><br>
<a href="https://www.qobuz.com/us-en/album/stranger-on-earth-lina/0075678343667" target="_blank" class="externalLink" rel="nofollow">https://www.qobuz.com/us-en/album/stranger-on-earth-lina/0075678343667</a><br>
<br>
<b>Livvi Franc</b><br>
<a href="https://www.qobuz.com/us-en/album/now-im-that-bitch-part-ii-livvi-franc-feat-pitbull/0884977260809" target="_blank" class="externalLink" rel="nofollow">https://www.qobuz.com/us-en/album/now-im-that-bitch-part-ii-livvi-franc-feat-pitbull/0884977260809</a><br>
<br>
<a href="https://www.qobuz.com/us-en/album/automatik-livvi-franc/0884977501902" target="_blank" class="externalLink" rel="nofollow">https://www.qobuz.com/us-en/album/automatik-livvi-franc/0884977501902</a><br>
<br>
<b>Vita Chambers</b><br>
<a href="https://www.qobuz.com/us-en/album/fix-you-vita-chambers/0060253726808" target="_blank" class="externalLink" rel="nofollow">https://www.qobuz.com/us-en/album/fix-you-vita-chambers/0060253726808</a><br>
<br>
<b>Jadyn Maria</b><br>
<a href="https://www.qobuz.com/us-en/album/good-girls-like-bad-boys-jadyn-maria-flo-rida/0060252708767" target="_blank" class="externalLink" rel="nofollow">https://www.qobuz.com/us-en/album/good-girls-like-bad-boys-jadyn-maria-flo-rida/0060252708767</a><br>
<br>
<b>Keira</b><br>
<a href="https://www.qobuz.com/us-en/album/no-business-on-the-dancefloor-keira/sthjo1jipkz5b" target="_blank" class="externalLink" rel="nofollow">https://www.qobuz.com/us-en/album/no-business-on-the-dancefloor-keira/sthjo1jipkz5b</a>
<div class="messageTextEndMarker">&nbsp;</div>
</blockquote>
</article>]]></description>
                <author><![CDATA[shareulus]]></author>
                </item>

                
                <item>
                <title><![CDATA[【Requests】[REQ AUD] - Clara Mae - Thank God These Walls Can’t Talk (FLAC)]]></title>
                <link><![CDATA[https://sharemania.us/threads/clara-mae-thank-god-these-walls-can%E2%80%99t-talk-flac.221599/]]></link>
                <description><![CDATA[<article>
<blockquote class="messageText SelectQuoteContainer ugc baseHtml">
Thank you!<br>
<img src="https://images.genius.com/7be36b30def769b9f79e6379a464f7cd.500x500x1.jpg" class="bbCodeImage LbImage" alt="[​IMG]" data-url="https://images.genius.com/7be36b30def769b9f79e6379a464f7cd.500x500x1.jpg" style="">
<div class="messageTextEndMarker">&nbsp;</div>
</blockquote>
</article>]]></description>
                <author><![CDATA[CamilleLaurent]]></author>
                </item>

                
                <item>
                <title><![CDATA[【Unreleased/Unofficial (lossless)】Kim Petras - Je T'adore (Vaughn Oliver Prod Version)]]></title>
                <link><![CDATA[https://sharemania.us/threads/kim-petras-je-tadore-vaughn-oliver-prod-version.221597/]]></link>
                <description><![CDATA[<article>
<blockquote class="messageText SelectQuoteContainer ugc baseHtml">
teased on Instagram forgot what date<br>
<div class="bbCodeBlock bbCodeVfcHH HiddenContent">
<div class="attribution type">Hidden Content:</div>
<blockquote>You must reply before you can see the hidden data contained here.</blockquote>
</div>
<div class="messageTextEndMarker">&nbsp;</div>
</blockquote>
</article>]]></description>
                <author><![CDATA[Tin]]></author>
                </item>

                
                <item>
                <title><![CDATA[【Requests】[REQ VID] - Florence + the Machine @ MITA Festival- 28th May 2023]]></title>
                <link><![CDATA[https://sharemania.us/threads/florence-the-machine-mita-festival-28th-may-2023.221601/]]></link>
                <description><![CDATA[<article>
<blockquote class="messageText SelectQuoteContainer ugc baseHtml">
If someone has the ability to capture this show, it would be very much appreciated.
<div class="messageTextEndMarker">&nbsp;</div>
</blockquote>
</article>]]></description>
                <author><![CDATA[U2spyplane]]></author>
                </item>

                
                <item>
                <title><![CDATA[【Unreleased/Unofficial (lossy)】MP3 - Kim Petras - Alone (Solo Demo)]]></title>
                <link><![CDATA[https://sharemania.us/threads/kim-petras-alone-solo-demo.221592/]]></link>
                <description><![CDATA[<article>
<blockquote class="messageText SelectQuoteContainer ugc baseHtml">
<div class="bbCodeBlock bbCodeVfcHH HiddenContent">
<div class="attribution type">Hidden Content:</div>
<blockquote>You must reply before you can see the hidden data contained here.</blockquote>
</div>i just wanna give it to you all night
<div class="messageTextEndMarker">&nbsp;</div>
</blockquote>
</article>]]></description>
                <author><![CDATA[Tin]]></author>
                </item>

                
                <item>
                <title><![CDATA[【Albums (lossless)】FLAC - Mary Mary - Gospel Albums please]]></title>
                <link><![CDATA[https://sharemania.us/threads/mary-mary-gospel-albums-please.221605/]]></link>
                <description><![CDATA[<article>
<blockquote class="messageText SelectQuoteContainer ugc baseHtml">
Does anyone have these albums they could share in flac please<br>
<br>
<a href="https://www.qobuz.com/us-en/album/mary-mary-mary-mary/0828767773322" target="_blank" class="externalLink" rel="nofollow">https://www.qobuz.com/us-en/album/mary-mary-mary-mary/0828767773322</a><br>
<br>
<a href="https://www.qobuz.com/us-en/album/something-big-mary-mary/0884977916195" target="_blank" class="externalLink" rel="nofollow">https://www.qobuz.com/us-en/album/something-big-mary-mary/0884977916195</a><br>
<br>
<a href="https://www.qobuz.com/us-en/album/thankful-mary-mary/0074646374023" target="_blank" class="externalLink" rel="nofollow">https://www.qobuz.com/us-en/album/thankful-mary-mary/0074646374023</a><br>
<br>
<a href="https://www.qobuz.com/us-en/album/the-sound-mary-mary/0888880725592" target="_blank" class="externalLink" rel="nofollow">https://www.qobuz.com/us-en/album/the-sound-mary-mary/0888880725592</a><br>
<br>
<a href="https://www.qobuz.com/us-en/album/incredible-mary-mary/0888880394019" target="_blank" class="externalLink" rel="nofollow">https://www.qobuz.com/us-en/album/incredible-mary-mary/0888880394019</a><br>
<br>
<a href="https://www.qobuz.com/us-en/album/a-mary-mary-christmas-mary-mary/0828768865026" target="_blank" class="externalLink" rel="nofollow">https://www.qobuz.com/us-en/album/a-mary-mary-christmas-mary-mary/0828768865026</a><br>
<br>
Would be greatly appreciated <img src="styles/default/xenforo/smilies/big_smile-48.png" class="mceSmilie" alt=":)" title="Smile    :)">
<div class="messageTextEndMarker">&nbsp;</div>
</blockquote>
</article>]]></description>
                <author><![CDATA[Antonm57]]></author>
                </item>

                
                <item>
                <title><![CDATA[【Unreleased/Unofficial (lossy)】MP3 - JENNIE - YOU &amp; ME (Writer's Demo)]]></title>
                <link><![CDATA[https://sharemania.us/threads/jennie-you-me-writers-demo.221594/]]></link>
                <description><![CDATA[<article>
<blockquote class="messageText SelectQuoteContainer ugc baseHtml">
I love you n me dancin in the moonlight BLACKPINK<br>
<div class="bbCodeBlock bbCodeVfcHH HiddenContent">
<div class="attribution type">Hidden Content:</div>
<blockquote>You must reply before you can see the hidden data contained here.</blockquote>
</div>
<div class="messageTextEndMarker">&nbsp;</div>
</blockquote>
</article>]]></description>
                <author><![CDATA[Tin]]></author>
                </item>

                
                <item>
                <title><![CDATA[【MASTER &amp; MASTER RIP】MASTER - Dermot Kennedy - Kiss Me (PCM Master-1080p)]]></title>
                <link><![CDATA[https://sharemania.us/threads/dermot-kennedy-kiss-me-pcm-master-1080p.221602/]]></link>
                <description><![CDATA[<article>
<blockquote class="messageText SelectQuoteContainer ugc baseHtml">
<img src="https://images2.imgbox.com/7e/eb/KyJQhRv1_o.jpg" class="bbCodeImage LbImage" alt="[​IMG]" data-url="https://images2.imgbox.com/7e/eb/KyJQhRv1_o.jpg" style=""><img src="https://images2.imgbox.com/0a/0b/QcdM67xa_o.jpg" class="bbCodeImage LbImage" alt="[​IMG]" data-url="https://images2.imgbox.com/0a/0b/QcdM67xa_o.jpg" style=""><br>
<div class="ToggleTriggerAnchor bbCodeSpoilerContainer">
<button type="button" class="button bbCodeSpoilerButton ToggleTrigger Tooltip JsOnly" data-target="> .SpoilerTarget"><span>Spoiler: <span class="SpoilerTitle">MediaInfo</span></span></button>
<div class="SpoilerTarget bbCodeSpoilerText">Format : MPEG-4<br>
Format profile : QuickTime<br>
Codec ID : qt 2005.03 (qt )<br>
File size : 1.85 GiB<br>
Duration : 3 min 55 s<br>
Overall bit rate : 67.6 Mb/s<br>
Encoded date : UTC 2022-08-31 15:55:14<br>
Tagged date : UTC 2022-08-31 15:55:14<br>
Video<br>
ID : 1<br>
Format : AVC<br>
Format/Info : Advanced Video Codec<br>
Format profile : Main@L4<br>
HDR format : SMPTE ST 2086<br>
Format settings : CABAC / 1 Ref Frames<br>
Format settings, CABAC : Yes<br>
Format settings, Reference : 1 frame<br>
Muxing mode : Container profile=Main@3.0<br>
Codec ID : avc1<br>
Codec ID/Info : Advanced Video Coding<br>
Duration : 3 min 55 s<br>
Bit rate : 66.1 Mb/s<br>
Width : 1 920 pixels<br>
Height : 1 080 pixels<br>
Display aspect ratio : 16:9<br>
Frame rate mode : Constant<br>
Frame rate : 25.000 FPS<br>
Color space : YUV<br>
Chroma subsampling : 4:2:0<br>
Bit depth : 8 bits<br>
Scan type : Progressive<br>
Bits/(Pixel*Frame) : 1.274<br>
Stream size : 1.81 GiB (98%)<br>
Language : English<br>
Encoded date : UTC 2022-08-31 15:55:14<br>
Tagged date : UTC 2022-08-31 15:55:14<br>
Color primaries : BT.709<br>
Transfer characteristics : BT.709<br>
Matrix coefficients : BT.709<br>
Mastering display color pri : BT.709<br>
Mastering display luminance : min: 0.0000 cd/m2, max: 100 cd/m2<br>
Codec configuration box : avcC<br>
Audio<br>
ID : 2<br>
Format : PCM<br>
Format settings : Big / Signed<br>
Codec ID : lpcm<br>
Duration : 3 min 55 s<br>
Bit rate mode : Constant<br>
Bit rate : 1 536 kb/s<br>
Channel(s) : 2 channels<br>
Channel layout : L R<br>
Sampling rate : 48.0 kHz<br>
Bit depth : 16 bits<br>
Stream size : 43.1 MiB (2%)<br>
Language : English<br>
Encoded date : UTC 2022-08-31 15:55:14<br>
Tagged date : UTC 2022-08-31 15:55:14</div>
</div>
<div class="bbCodeBlock bbCodeVfcHH HiddenContent">
<div class="attribution type">Hidden Content:</div>
<blockquote>You must either reply or click 'Like' to see the hidden information contained here.</blockquote>
</div>
<div class="messageTextEndMarker">&nbsp;</div>
</blockquote>
</article>]]></description>
                <author><![CDATA[ianarturis]]></author>
                </item>

                
                <item>
                <title><![CDATA[【Live Audios (lossy)】M4A - Lana Del Rey - Live at MITA Festival 2023]]></title>
                <link><![CDATA[https://sharemania.us/threads/lana-del-rey-live-at-mita-festival-2023.221604/]]></link>
                <description><![CDATA[<article>
<blockquote class="messageText SelectQuoteContainer ugc baseHtml">
<div style="text-align: center"><img src="https://i.ibb.co/fGfzRxt/folder.png" class="bbCodeImage LbImage" alt="[​IMG]" data-url="https://i.ibb.co/fGfzRxt/folder.png" style=""> <br>
<span style="font-size: 15px"><span style="font-family: 'Times New Roman'"><span style="color: rgb(0, 0, 0)"><br>
<br>
<br>
<div class="bbCodeBlock bbCodeVfcHH HiddenContent">
<div class="attribution type">Hidden Content:</div>
<blockquote>You must reply before you can see the hidden data contained here.</blockquote>
</div></span></span></span>​</div>
<div class="messageTextEndMarker">&nbsp;</div>
</blockquote>
</article>]]></description>
                <author><![CDATA[itschaotic]]></author>
                </item>

                
                <item>
                <title><![CDATA[【Requests】[REQ AUD] - Madonna - Ring My Bell]]></title>
                <link><![CDATA[https://sharemania.us/threads/madonna-ring-my-bell.221598/]]></link>
                <description><![CDATA[<article>
<blockquote class="messageText SelectQuoteContainer ugc baseHtml">
Does anyone have this song in any format, preferably .m4a or FLAC? The other link posted on this forum is dead. Thank you!!
<div class="messageTextEndMarker">&nbsp;</div>
</blockquote>
</article>]]></description>
                <author><![CDATA[aaronnjh]]></author>
                </item>

                
                <item>
                <title><![CDATA[【Albums (lossless)】FLAC - Marco Mengoni - Prisma (2023)]]></title>
                <link><![CDATA[https://sharemania.us/threads/marco-mengoni-prisma-2023.221600/]]></link>
                <description><![CDATA[<article>
<blockquote class="messageText SelectQuoteContainer ugc baseHtml">
<img src="https://resources.tidal.com/images/f0c20521/cbf1/4bc6/9cde/0ca91e94bb55/1280x1280.jpg" class="bbCodeImage LbImage" alt="[​IMG]" data-url="https://resources.tidal.com/images/f0c20521/cbf1/4bc6/9cde/0ca91e94bb55/1280x1280.jpg" style=""> <br>
<b>Data de lançamento: 26/05/2023<br>
Gênero: Pop<br>
Gravadora: Sony Music Entertainment Italy S.p.a.</b><br>
<br>
<b>Faixas: </b><br>
<ol>
<li><i>Due Vite</i></li>
<li><i>Fiori D'orgoglio</i></li>
<li><i>Pazza Musica</i></li>
<li><i>Incenso</i></li>
<li><i>Un'Altra Storia</i></li>
<li><i>Appunto 5: Non Sono Questo</i></li>
<li><i>In Tempo</i></li>
<li><i>The Damned Of The Earth</i></li>
<li><i>Lasciami Indietro</i></li>
<li><i>Due Nuvole</i></li>
<li><i>Let It Be</i></li>
<li><i>No Stress</i></li>
<li><i>In Città</i></li>
<li><i>Attraverso Te</i></li>
<li><i>Tutti I Miei Ricordi</i></li>
<li><i>Chiedimi Come Sto</i></li>
<li><i>Migliore Di Me</i></li>
<li><i>Unatoka Wapi</i></li>
<li><i>Neruda</i></li>
<li><i>Parlami Sopra</i></li>
<li><i>Appunto 3. 16-03-2022</i></li>
<li><i>Respira</i></li>
<li><i>Appunto 4. 27-06-2022</i></li>
<li><i>Ancora Una Volta</i></li>
<li><i>Caro amore lontanissimo</i></li>
<li><i>Cambia Un Uomo</i></li>
<li><i>Una Canzone Triste</i></li>
<li><i>Il Meno Possibile</i></li>
<li><i>In Due Minuti</i></li>
<li><i>Mi Fiderò</i></li>
<li><i>Ma stasera</i></li>
<li><i>Appunto 1. 23-01-2021</i></li>
<li><i>Proibito</i></li>
<li><i>Appunto 2. 14-05-2021</i></li>
<li><i>Luce</i></li>
<li><i>Un Fiore Contro Il Diluvio</i></li>
<li><i>Ma stasera (Benny Benassi Remix)</i></li>
</ol>
<div class="bbCodeBlock bbCodeVfcHH HiddenContent">
<div class="attribution type">Hidden Content:</div>
<blockquote>You must either reply or click 'Like' to see the hidden information contained here.</blockquote>
</div>
<div class="messageTextEndMarker">&nbsp;</div>
</blockquote>
</article>]]></description>
                <author><![CDATA[Giulya]]></author>
                </item>

                
                <item>
                <title><![CDATA[【Unreleased/Unofficial (lossy)】MP3 - Ariana Grande &amp; Bekuh Boom - Ice Cream (Writer's Demo)]]></title>
                <link><![CDATA[https://sharemania.us/threads/ariana-grande-bekuh-boom-ice-cream-writers-demo.221595/]]></link>
                <description><![CDATA[<article>
<blockquote class="messageText SelectQuoteContainer ugc baseHtml">
recorded late late 2019 aka Positions era<br>
<div class="bbCodeBlock bbCodeVfcHH HiddenContent">
<div class="attribution type">Hidden Content:</div>
<blockquote>You must reply before you can see the hidden data contained here.</blockquote>
</div>
<div class="messageTextEndMarker">&nbsp;</div>
</blockquote>
</article>]]></description>
                <author><![CDATA[Tin]]></author>
                </item>

                
                <item>
                <title><![CDATA[【PRORES SD】The White Stripes - Seven Nation Army (ProRes-576i)]]></title>
                <link><![CDATA[https://sharemania.us/threads/the-white-stripes-seven-nation-army-prores-576i.221596/]]></link>
                <description><![CDATA[<article>
<blockquote class="messageText SelectQuoteContainer ugc baseHtml">
<img src="https://images2.imgbox.com/80/e1/ZNRWqjeA_o.jpg" class="bbCodeImage LbImage" alt="[​IMG]" data-url="https://images2.imgbox.com/80/e1/ZNRWqjeA_o.jpg" style=""><br>
<div class="ToggleTriggerAnchor bbCodeSpoilerContainer">
<button type="button" class="button bbCodeSpoilerButton ToggleTrigger Tooltip JsOnly" data-target="> .SpoilerTarget"><span>Spoiler: <span class="SpoilerTitle">MediaInfo</span></span></button>
<div class="SpoilerTarget bbCodeSpoilerText">Format : MPEG-4<br>
Format profile : QuickTime<br>
Codec ID : qt 2005.03 (qt )<br>
File size : 1.51 GiB<br>
Duration : 3 min 53 s<br>
Overall bit rate mode : Variable<br>
Overall bit rate : 55.5 Mb/s<br>
Encoded date : UTC 2009-03-30 10:01:27<br>
Tagged date : UTC 2009-03-30 10:04:04<br>
Writing library : Apple QuickTime<br>
Media/UUID : 618B88ED-12EC-4863-9AA3-C7706C2A950D<br>
Media/History/UUID : D4C11FAE-8DE0-4EB9-9920-F40F9EC22A44<br>
Video<br>
ID : 1<br>
Format : ProRes<br>
Format version : Version 0<br>
Format profile : 422 HQ<br>
Codec ID : apch<br>
Duration : 3 min 53 s<br>
Bit rate mode : Variable<br>
Bit rate : 53.9 Mb/s<br>
Width : 720 pixels<br>
Height : 576 pixels<br>
Display aspect ratio : 5:4<br>
Frame rate mode : Constant<br>
Frame rate : 25.000 FPS<br>
Standard : PAL<br>
Color space : YUV<br>
Chroma subsampling : 4:2:2<br>
Scan type : Interlaced<br>
Scan type, store method : Interleaved fields<br>
Scan order : Top Field First<br>
Bits/(Pixel*Frame) : 5.203<br>
Stream size : 1.47 GiB (97%)<br>
Writing library : Apple<br>
Language : English<br>
Encoded date : UTC 2009-03-30 10:01:27<br>
Tagged date : UTC 2009-03-30 10:04:04<br>
Color primaries : BT.601 PAL<br>
Matrix coefficients : BT.601<br>
Audio #1<br>
ID : 2<br>
Format : PCM<br>
Format settings : Little / Signed<br>
Codec ID : sowt<br>
Duration : 3 min 53 s<br>
Bit rate mode : Constant<br>
Bit rate : 768 kb/s<br>
Channel(s) : 1 channel<br>
Sampling rate : 48.0 kHz<br>
Bit depth : 16 bits<br>
Stream size : 21.4 MiB (1%)<br>
Language : English<br>
Encoded date : UTC 2009-03-30 10:01:27<br>
Tagged date : UTC 2009-03-30 10:04:04<br>
Audio #2<br>
ID : 3<br>
Format : PCM<br>
Format settings : Little / Signed<br>
Codec ID : sowt<br>
Duration : 3 min 53 s<br>
Bit rate mode : Constant<br>
Bit rate : 768 kb/s<br>
Channel(s) : 1 channel<br>
Sampling rate : 48.0 kHz<br>
Bit depth : 16 bits<br>
Stream size : 21.4 MiB (1%)<br>
Language : English<br>
Encoded date : UTC 2009-03-30 10:01:27<br>
Tagged date : UTC 2009-03-30 10:04:04</div>
</div>
<div class="bbCodeBlock bbCodeVfcHH HiddenContent">
<div class="attribution type">Hidden Content:</div>
<blockquote>You must either reply or click 'Like' to see the hidden information contained here.</blockquote>
</div>
<div class="messageTextEndMarker">&nbsp;</div>
</blockquote>
</article>]]></description>
                <author><![CDATA[ianarturis]]></author>
                </item>

                
                <item>
                <title><![CDATA[【Requests】[REQ AUD] - Chris Cummings - 3 Albums  - qobuz]]></title>
                <link><![CDATA[https://sharemania.us/threads/chris-cummings-3-albums-qobuz.221593/]]></link>
                <description><![CDATA[<article>
<blockquote class="messageText SelectQuoteContainer ugc baseHtml">
Hello, i'm lookin' for these albums. If anyone has the will and time to share it, i'd be much thankful.<br>
<br>
Chris Cummings - Chris Cummings - 1998<br>
<a href="https://www.qobuz.com/dk-en/album/chris-cummings-chris-cummings/0603497075362" target="_blank" class="externalLink" rel="nofollow">https://www.qobuz.com/dk-en/album/chris-cummings-chris-cummings/0603497075362</a><br>
<br>
Chris Cummings - Ooh, That Could Cost Him The Gold, Bob - 2002<br>
<a href="https://www.qobuz.com/dk-en/album/ooh-that-could-cost-him-the-gold-bob-chris-cummings/0809274334961" target="_blank" class="externalLink" rel="nofollow">https://www.qobuz.com/dk-en/album/ooh-that-could-cost-him-the-gold-bob-chris-cummings/0809274334961</a><br>
<br>
Chris Cummings - Lonesomeville - 2008<br>
<a href="https://www.qobuz.com/dk-en/album/lonesomeville-chris-cummings/0603497988877" target="_blank" class="externalLink" rel="nofollow">https://www.qobuz.com/dk-en/album/lonesomeville-chris-cummings/0603497988877</a><br>
<br>
Thx very much.
<div class="messageTextEndMarker">&nbsp;</div>
</blockquote>
</article>]]></description>
                <author><![CDATA[Rush007]]></author>
                </item>

                
                <item>
                <title><![CDATA[【Albums (lossy)】iTunes Plus - Taylor Swift – Midnights (The Brimful Gloom Edition) [Fanmade Complete Edition]]]></title>
                <link><![CDATA[https://sharemania.us/threads/taylor-swift-%E2%80%93-midnights-the-brimful-gloom-edition-fanmade-complete-edition.221591/]]></link>
                <description><![CDATA[<article>
<blockquote class="messageText SelectQuoteContainer ugc baseHtml">
<b>Taylor Swift – Midnights (The Brimful Gloom Edition)</b><br>
<img src="https://i.imgur.com/1kz7I4P.jpg" class="bbCodeImage LbImage" alt="[​IMG]" data-url="https://i.imgur.com/1kz7I4P.jpg" style=""><br>
Year: 2023-05-26<br>
Genre: Pop<br>
<br>
Tracklist<br>
1. Lavender Haze (Explicit) (03:22)<br>
2. Maroon (Explicit) (03:38)<br>
3. Anti-Hero (03:20)<br>
4. Snow On The Beach (feat. Lana Del Rey) (Explicit) (04:16)<br>
5. You're On Your Own, Kid (03:14)<br>
6. Midnight Rain (02:54)<br>
7. Question...? (Explicit) (03:30)<br>
8. Vigilante Shit (Explicit) (02:44)<br>
9. Bejeweled (03:14)<br>
10. Labyrinth (04:07)<br>
11. Karma (Explicit) (03:24)<br>
12. Sweet Nothing (03:08)<br>
13. Mastermind (03:11)<br>
14. The Great War (04:00)<br>
15. Bigger Than The Whole Sky (03:38)<br>
16. Paris (03:16)<br>
17. High Infidelity (03:51)<br>
18. Glitch (02:28)<br>
19. Would've, Could've, Should've (04:20)<br>
20. Dear Reader (03:45)<br>
21. Hits Different (Explicit) (3:54)<br>
22. You're Losing Me (From The Vault) (4:37)<br>
23. Snow on the Beach (feat. More Lana Del Rey) (Explicit) (3:49)<br>
24. Karma (feat. Ice Spice) (Explicit) (3:21)<br>
25. You're On Your Own, Kid (Strings Remix) (3:19)<br>
26. Sweet Nothing (Piano Remix) (3:27)<br>
<b>CD 2</b><br>
1. Lavender Haze (Clean) (03:22)<br>
2. Maroon (Clean) (03:38)<br>
4. Snow On The Beach (feat. Lana Del Rey) (Clean) (04:16)<br>
7. Question...? (Clean) (03:30)<br>
8. Vigilante Shit (Clean) (02:44)<br>
11. Karma (Clean) (03:24)<br>
21. Hits Different (Clean) (3:54)<br>
22. Snow on the Beach (feat. More Lana Del Rey) (Clean) (3:49)<br>
23. Karma (feat. Ice Spice) (Clean) (3:21)<br>
<br>
<div class="bbCodeBlock bbCodeVfcHH HiddenContent">
<div class="attribution type">Hidden Content:</div>
<blockquote>You must reply before you can see the hidden data contained here.</blockquote>
</div>
<div class="messageTextEndMarker">&nbsp;</div>
</blockquote>
</article>]]></description>
                <author><![CDATA[rapse]]></author>
                </item>

                </channel></rss>